<?xml version="1.0" encoding="UTF-8" standalone="no"?>
<svg
   xmlns:dc="http://purl.org/dc/elements/1.1/"
   xmlns:cc="http://creativecommons.org/ns#"
   xmlns:rdf="http://www.w3.org/1999/02/22-rdf-syntax-ns#"
   xmlns:svg="http://www.w3.org/2000/svg"
   xmlns="http://www.w3.org/2000/svg"
   xmlns:sodipodi="http://sodipodi.sourceforge.net/DTD/sodipodi-0.dtd"
   xmlns:inkscape="http://www.inkscape.org/namespaces/inkscape"
   aria-hidden="true"
   focusable="false"
   data-prefix="fab"
   data-icon="instagram"
   class="svg-inline--fa fa-instagram fa-w-14"
   role="img"
   viewBox="0 0 448 512"
   id="svg2"
   version="1.1"
   inkscape:version="0.91 r13725"
   sodipodi:docname="instagram.svg">
  <metadata
     id="metadata10">
    <rdf:RDF>
      <cc:Work
         rdf:about="">
        <dc:format>image/svg+xml</dc:format>
        <dc:type
           rdf:resource="http://purl.org/dc/dcmitype/StillImage" />
      </cc:Work>
    </rdf:RDF>
  </metadata>
  <defs
     id="defs8" />
  <sodipodi:namedview
     pagecolor="#ffffff"
     bordercolor="#666666"
     borderopacity="1"
     objecttolerance="10"
     gridtolerance="10"
     guidetolerance="10"
     inkscape:pageopacity="0"
     inkscape:pageshadow="2"
     inkscape:window-width="1024"
     inkscape:window-height="721"
     id="namedview6"
     showgrid="false"
     inkscape:zoom="0.4609375"
     inkscape:cx="-125.28814"
     inkscape:cy="256"
     inkscape:window-x="-4"
     inkscape:window-y="-4"
     inkscape:window-maximized="1"
     inkscape:current-layer="svg2" />
  <path
     d="M224.1 141c-63.6 0-114.9 51.3-114.9 114.9s51.3 114.9 114.9 114.9S339 319.5 339 255.9 287.7 141 224.1 141zm0 189.6c-41.1 0-74.7-33.5-74.7-74.7s33.5-74.7 74.7-74.7 74.7 33.5 74.7 74.7-33.6 74.7-74.7 74.7zm146.4-194.3c0 14.9-12 26.8-26.8 26.8-14.9 0-26.8-12-26.8-26.8s12-26.8 26.8-26.8 26.8 12 26.8 26.8zm76.1 27.2c-1.7-35.9-9.9-67.7-36.2-93.9-26.2-26.2-58-34.4-93.9-36.2-37-2.1-147.9-2.1-184.9 0-35.8 1.7-67.6 9.9-93.9 36.1s-34.4 58-36.2 93.9c-2.1 37-2.1 147.9 0 184.9 1.7 35.9 9.9 67.7 36.2 93.9s58 34.4 93.9 36.2c37 2.1 147.9 2.1 184.9 0 35.9-1.7 67.7-9.9 93.9-36.2 26.2-26.2 34.4-58 36.2-93.9 2.1-37 2.1-147.8 0-184.8zM398.8 388c-7.8 19.6-22.9 34.7-42.6 42.6-29.5 11.7-99.5 9-132.1 9s-102.7 2.6-132.1-9c-19.6-7.8-34.7-22.9-42.6-42.6-11.7-29.5-9-99.5-9-132.1s-2.6-102.7 9-132.1c7.8-19.6 22.9-34.7 42.6-42.6 29.5-11.7 99.5-9 132.1-9s102.7-2.6 132.1 9c19.6 7.8 34.7 22.9 42.6 42.6 11.7 29.5 9 99.5 9 132.1s2.7 102.7-9 132.1z"
     id="path4"
     style="fill:#4f7dff;fill-opacity:1"
     fill="currentColor" />
  <path
     style="fill:#4f7df3;fill-opacity:1;stroke:#4f7df3;stroke-width:2.16949153;stroke-opacity:1"
     d="m 178.00678,437.83847 c -35.44812,-0.82896 -66.29662,-2.55286 -72.29741,-4.04018 C 89.098487,429.6812 75.276392,421.56316 64.534029,409.61508 43.370561,386.0762 40.504463,364.49137 41.91314,239.25513 43.017509,141.07292 44.112007,131.70845 56.792562,111.94751 68.874494,93.119455 85.394543,82.269048 109.80956,77.125824 c 19.1531,-4.034758 211.93488,-3.82232 229.82434,0.253257 31.38176,7.149395 52.52358,26.181949 60.56877,54.525999 9.7172,34.23464 10.47555,205.82138 1.07924,244.18734 -5.38887,22.00324 -20.0151,41.24531 -38.53167,50.69175 -20.44368,10.42957 -74.11861,13.64127 -184.74346,11.0543 z m 80.88201,-71.79145 c 36.03332,-12.02488 64.51011,-40.53547 75.52293,-75.61257 6.61714,-21.07635 6.31567,-50.73105 -0.72145,-70.96628 -13.23748,-38.06433 -42.98318,-65.54503 -81.92078,-75.68286 -18.18394,-4.73439 -47.8223,-3.3384 -65.99436,3.10838 -65.17026,23.12004 -95.320092,96.90427 -65.23868,159.65546 13.52672,28.21734 36.74176,48.31586 68.19236,59.03777 19.51264,6.65211 50.98672,6.85852 70.15998,0.4601 z m 95.95372,-204.72325 c 21.32903,-8.91184 21.05802,-41.3608 -0.42038,-50.33506 -10.83479,-4.52705 -21.42852,-2.16536 -30.36273,6.76884 -6.22568,6.22569 -7.20516,8.66949 -7.20516,17.97699 0,12.42007 5.35934,20.95827 16.08719,25.62918 8.67324,3.77633 12.7854,3.76883 21.90108,-0.0399 z"
     id="path6202"
     inkscape:connector-curvature="0" />
  <path
     style="fill:#4f7dfd;fill-opacity:1;stroke:#ffffff;stroke-width:2.16949153;stroke-opacity:1"
     d="m 196.44746,324.06816 c -17.16655,-7.14695 -35.82731,-26.40887 -41.47678,-42.81295 -12.67625,-36.80736 3.91901,-75.77192 39.30729,-92.29087 18.10835,-8.45283 42.04245,-8.55474 59.98202,-0.25541 14.89548,6.89106 27.86737,19.44766 35.93346,34.78308 5.36243,10.19516 6.03092,13.74493 6.04019,32.07409 0.0124,24.50272 -4.61232,36.26594 -20.50696,52.16058 -14.38639,14.38639 -27.6578,20.09806 -48.81666,21.00941 -14.76416,0.63593 -19.44637,-0.0815 -30.46256,-4.66793 z"
     id="path6208"
     inkscape:connector-curvature="0" />
  <path
     style="fill:#ffffff;fill-opacity:1;stroke:#ffffff;stroke-width:2.16949153;stroke-opacity:1"
     d="M 196.7044,365.96684 C 158.07373,356.8977 123.55994,321.55919 114.08801,281.3763 97.409243,210.6198 151.63116,142.75254 224.84018,142.75254 c 49.3401,0 94.26905,34.56409 108.35599,83.35885 5.18456,17.95849 3.56053,53.92665 -3.18909,70.62975 -13.30772,32.93227 -43.31932,59.65169 -77.15284,68.68942 -12.16526,3.24962 -43.32453,3.54721 -56.14984,0.53628 z m 48.6443,-37.94979 c 44.38714,-13.18157 66.96414,-64.36221 46.46076,-105.32364 -17.90327,-35.76694 -62.07257,-51.94742 -97.57391,-35.74412 -45.30816,20.67928 -59.83306,77.34349 -29.49244,115.05531 20.09803,24.98082 50.75969,34.87572 80.60559,26.01245 z"
     id="path6214"
     inkscape:connector-curvature="0" />
  <path
     style="fill:#ffffff;fill-opacity:1;stroke:#ffffff;stroke-width:2.16949153;stroke-opacity:1"
     d="m 332.47043,158.75504 c -8.69198,-4.41255 -13.4467,-12.95092 -13.4467,-24.14714 0,-6.73114 1.50303,-9.81692 7.71372,-15.83656 6.43168,-6.23382 9.30934,-7.47642 17.31421,-7.47642 7.95025,0 10.81964,1.21914 16.69306,7.09256 6.10442,6.10442 7.09257,8.59224 7.09257,17.85659 0,9.10625 -1.01894,11.78295 -6.61603,17.38005 -8.21866,8.21865 -18.91007,10.12666 -28.75083,5.13092 z"
     id="path6216"
     inkscape:connector-curvature="0" />
  <path
     style="fill:#ffffff;fill-opacity:1;stroke:#497df3;stroke-width:10;stroke-miterlimit:4;stroke-dasharray:none;stroke-opacity:1"
     d="M 124.78225,476.99397 C 101.98623,474.83474 86.596037,471.10749 70.616949,463.87601 35.71479,448.08077 11.061398,413.28252 4.5100008,370.5661 3.9048711,366.62053 3.1988664,355.44058 2.5540432,340.68819 1.9328393,326.47617 1.3684171,308.94862 1.0056691,291.37966 0.82073063,282.42254 0.70133075,273.48571 0.64377972,264.65962 0.22409276,200.29596 3.0935011,141.82133 7.8210961,124.31186 13.638149,102.76739 25.126224,83.486687 41.095971,68.465859 66.553836,44.520692 88.684811,37.009949 142.21017,34.150028 c 75.62817,-4.040899 187.03768,-1.161333 212.61017,5.495264 22.49071,5.854401 41.61582,17.109816 56.47107,32.810789 14.84788,15.693191 25.43015,35.827539 30.84389,59.448999 3.25651,14.20893 3.72914,29.88209 3.72914,123.66102 0,93.94504 -0.4682,109.41737 -3.73979,123.5847 -8.94681,38.74334 -30.61168,67.67167 -62.35516,83.26059 -28.6848,14.08686 -35.30815,14.81222 -142.10169,15.56261 -52.5017,0.36892 -103.30019,-0.072 -112.88555,-0.98003 z m 206.29322,-40.00212 c 31.41569,-4.71808 47.62255,-14.11493 61.41516,-35.60884 9.71956,-15.14663 13.13818,-31.69812 15.77858,-76.39318 2.60179,-44.04176 1.13532,-143.96868 -2.5418,-173.19918 C 402.08076,122.80217 392.45917,103.70976 375.04236,90.901294 351.01423,73.230798 324.44227,70.256304 204.10337,71.766181 112.83756,72.911282 105.0256,73.725093 83.86803,84.291697 71.785531,90.325988 56.707243,106.11368 50.268028,119.4725 c -8.685657,18.01931 -10.02396,36.33405 -10.02396,137.17835 0,120.84402 1.597518,131.08909 24.210373,155.26406 15.352064,16.4126 30.390311,22.81422 62.569289,26.63505 3.57966,0.42504 46.53559,0.91218 95.45763,1.08253 65.30451,0.22738 94.1712,-0.47456 108.59411,-2.64064 z"
     id="path6218"
     inkscape:connector-curvature="0"
     sodipodi:nodetypes="cssssssssssssssscsssssssssssss" />
</svg>
